<?xml version="1.0" standalone="no"?>
<!DOCTYPE svg PUBLIC "-//W3C//DTD SVG 20010904//EN"
 "http://www.w3.org/TR/2001/REC-SVG-20010904/DTD/svg10.dtd">
<svg version="1.0" xmlns="http://www.w3.org/2000/svg"
 width="570.000000pt" height="605.000000pt" viewBox="0 0 570.000000 605.000000"
 preserveAspectRatio="xMidYMid meet">

<g transform="translate(0.000000,605.000000) scale(0.100000,-0.100000)"
fill="#000000" stroke="none">
<path d="M2746 4518 c-13 -331 -36 -905 -47 -1185 l-12 -282 76 -71 c85 -79
111 -121 201 -323 76 -169 86 -213 86 -361 l0 -112 -55 -48 c-82 -70 -108
-121 -113 -221 -6 -106 14 -167 74 -234 83 -92 162 -121 270 -100 33 7 73 9
88 5 16 -4 58 -38 96 -78 68 -69 70 -71 110 -65 23 3 44 8 47 11 3 3 -17 26
-46 52 -101 90 -118 137 -95 249 44 207 -3 317 -179 419 -85 49 -100 86 -125
311 -7 60 -17 92 -39 130 -36 61 -93 217 -122 339 -27 109 -53 295 -81 566
-31 311 -38 389 -66 727 -32 395 -37 436 -50 440 -8 3 -14 -48 -18 -169z m104
-1367 c15 -30 12 -56 -10 -76 -46 -41 -116 29 -75 75 23 26 71 26 85 1z m351
-1041 c46 -13 106 -60 140 -111 68 -100 34 -256 -73 -326 -32 -22 -53 -28 -97
-28 -166 1 -267 191 -192 360 23 50 58 83 108 100 46 17 67 18 114 5z"/>
<path d="M3230 4468 c-28 -73 -64 -167 -80 -208 -112 -288 -234 -632 -238
-667 -4 -41 24 -339 35 -378 5 -17 351 1329 352 1373 1 6 -3 12 -8 12 -5 0
-33 -60 -61 -132z"/>
<path d="M2610 2903 c-77 -148 -158 -270 -208 -315 -34 -31 -47 -35 -108 -41
-149 -12 -260 -80 -316 -194 -28 -58 -33 -77 -32 -143 0 -170 107 -282 269
-283 62 -1 81 4 165 42 52 23 98 46 102 49 15 15 29 251 18 312 -19 102 -15
151 18 229 45 107 116 214 194 293 38 38 68 71 66 72 -2 1 -26 24 -54 50 l-52
47 -62 -118z m-266 -473 c125 -80 128 -278 5 -383 -37 -33 -96 -57 -135 -57
-137 0 -233 147 -191 291 44 151 202 224 321 149z"/>
</g>
</svg>
